<?xml version="1.0" standalone="no"?>
<!DOCTYPE svg PUBLIC "-//W3C//DTD SVG 20010904//EN"
 "http://www.w3.org/TR/2001/REC-SVG-20010904/DTD/svg10.dtd">
<svg version="1.0" xmlns="http://www.w3.org/2000/svg"
     width="512.000000pt" height="512.000000pt" viewBox="0 0 512.000000 512.000000"
     preserveAspectRatio="xMidYMid meet">
    <metadata>
        Created by potrace 1.14, written by Peter Selinger 2001-2017
    </metadata>
    <g transform="translate(0.000000,512.000000) scale(0.100000,-0.100000)"
       fill="#000000" stroke="none">
        <path d="M2295 5108 c-71 -4 -139 -12 -150 -18 -11 -5 -48 -12 -82 -15 -35 -4
-63 -10 -63 -15 0 -4 -35 -13 -77 -19 -42 -6 -81 -15 -87 -20 -6 -5 -28 -11
-48 -15 -21 -4 -38 -10 -38 -15 0 -4 -25 -13 -56 -20 -30 -7 -67 -19 -82 -26
-15 -8 -97 -48 -182 -90 -85 -42 -173 -87 -195 -100 -22 -14 -48 -27 -57 -31
-10 -3 -18 -10 -18 -15 0 -6 -8 -12 -17 -16 -10 -3 -34 -19 -54 -35 -20 -15
-41 -28 -45 -28 -5 0 -17 -9 -29 -20 -40 -38 -103 -90 -109 -90 -5 0 -76 -66
-173 -163 -71 -70 -133 -138 -133 -145 0 -4 -16 -23 -35 -42 -19 -19 -35 -39
-35 -45 0 -5 -9 -16 -20 -23 -11 -7 -20 -17 -20 -24 0 -6 -16 -30 -35 -54 -19
-23 -35 -47 -35 -53 0 -6 -4 -11 -10 -11 -5 0 -10 -5 -10 -12 0 -6 -7 -19 -15
-28 -8 -9 -29 -45 -48 -80 -40 -77 -60 -113 -67 -120 -10 -10 -40 -72 -40 -83
0 -7 -12 -37 -26 -67 -32 -67 -39 -83 -55 -135 -7 -22 -16 -44 -20 -50 -4 -5
-10 -26 -14 -45 -4 -19 -11 -39 -15 -45 -4 -5 -13 -39 -20 -75 -7 -36 -16 -69
-20 -75 -4 -5 -11 -41 -15 -80 -4 -38 -11 -72 -15 -75 -14 -8 -30 -261 -30
-459 0 -185 17 -401 31 -401 4 0 10 -31 14 -70 4 -38 10 -70 14 -70 4 0 13
-34 20 -75 7 -41 16 -77 20 -80 5 -2 11 -24 15 -47 4 -23 10 -47 14 -53 4 -5
14 -28 21 -50 7 -22 19 -53 26 -70 37 -83 55 -126 55 -134 0 -12 32 -71 47
-89 7 -7 13 -21 13 -31 0 -10 15 -38 33 -62 18 -24 38 -55 45 -69 19 -39 36
-64 49 -73 7 -4 13 -13 13 -19 0 -5 13 -27 30 -48 16 -21 30 -43 30 -49 0 -6
9 -16 20 -23 11 -7 20 -18 20 -23 0 -6 16 -26 35 -45 19 -19 35 -38 35 -42 0
-13 291 -300 345 -340 28 -20 57 -44 66 -52 9 -9 19 -16 23 -16 4 0 27 -16 50
-35 24 -19 48 -35 55 -35 6 0 14 -6 17 -14 3 -8 19 -18 35 -21 16 -4 29 -10
29 -15 0 -10 7 -15 181 -102 74 -38 142 -68 151 -68 10 0 18 -4 18 -10 0 -5
16 -12 35 -16 19 -3 35 -10 35 -14 0 -4 20 -13 44 -19 25 -6 47 -15 51 -20 3
-5 30 -13 60 -16 30 -4 55 -11 55 -15 0 -5 34 -14 75 -21 41 -6 75 -15 75 -19
0 -4 30 -11 67 -15 36 -4 74 -11 82 -15 31 -17 199 -30 376 -30 178 0 401 16
420 30 6 4 43 11 83 15 39 4 74 11 77 15 3 4 41 13 85 21 44 7 80 16 80 20 0
5 23 11 50 15 28 4 50 10 50 15 0 4 25 13 55 20 30 7 55 16 55 21 0 4 8 8 17
8 13 0 125 49 205 91 10 5 24 9 32 9 7 0 20 7 27 16 7 9 41 29 76 46 35 16 63
34 63 39 0 5 5 9 10 9 14 0 72 41 83 58 4 6 15 12 22 12 8 0 32 16 54 35 21
19 42 35 46 35 8 0 20 10 106 89 31 28 59 51 62 51 9 0 167 158 167 167 0 3
23 31 51 62 78 85 89 98 89 106 0 4 15 25 33 48 19 23 37 50 40 59 4 10 11 18
17 18 5 0 10 5 10 10 0 9 35 65 50 80 19 19 170 324 170 343 0 9 4 17 9 17 5
0 13 15 17 32 3 18 12 42 19 53 7 11 16 34 20 52 3 17 13 34 21 37 8 3 14 18
14 34 0 15 5 33 10 38 6 6 15 38 21 72 6 34 15 62 19 62 4 0 11 24 14 52 4 29
11 57 16 63 38 46 37 827 -1 898 -6 10 -13 41 -16 68 -3 27 -9 49 -13 49 -4 0
-13 41 -20 90 -7 50 -16 90 -20 90 -4 0 -11 17 -15 38 -4 20 -10 42 -15 47 -4
6 -13 36 -20 68 -7 31 -17 57 -21 57 -4 0 -10 14 -14 30 -4 17 -11 30 -16 30
-5 0 -9 8 -9 17 0 10 -11 40 -24 68 -13 27 -31 66 -40 85 -9 19 -30 58 -46 85
-17 28 -35 61 -42 75 -7 14 -15 27 -18 30 -14 13 -50 70 -50 79 0 5 -22 36
-50 69 -27 33 -50 63 -50 67 0 8 -11 21 -89 106 -28 31 -51 59 -51 63 0 10
-159 163 -230 221 -33 28 -68 58 -78 68 -9 9 -21 17 -26 17 -5 0 -32 20 -60
44 -28 23 -64 51 -81 60 -41 23 -69 40 -75 47 -3 3 -12 8 -20 12 -8 4 -33 18
-55 32 -65 40 -243 125 -263 125 -7 0 -12 4 -12 10 0 5 -16 12 -35 16 -19 3
-35 10 -35 14 0 4 -26 13 -57 20 -32 7 -62 17 -68 21 -5 3 -26 10 -45 14 -19
4 -37 11 -40 16 -3 4 -37 13 -75 19 -38 6 -72 15 -75 20 -3 4 -39 12 -80 16
-41 4 -77 10 -80 14 -7 11 -292 30 -423 29 -61 -1 -170 -6 -242 -11z m235
-343 l0 -185 -30 0 -30 0 0 185 0 185 30 0 30 0 0 -185z m120 0 l0 -185 -30 0
-30 0 0 185 0 185 30 0 30 0 0 -185z m-1121 -308 c70 -122 72 -129 55 -142
-11 -8 -22 -15 -26 -15 -3 0 -46 68 -94 151 l-87 151 23 18 c28 21 14 39 129
-163z m2214 161 c14 -12 13 -18 -17 -69 -18 -30 -46 -77 -61 -105 -78 -141
-82 -145 -114 -125 -9 6 -11 16 -7 27 17 44 162 284 172 284 5 0 18 -6 27 -12z
m112 -67 c3 -5 -8 -32 -23 -58 -16 -27 -42 -71 -57 -99 -80 -144 -87 -153
-112 -141 -13 5 -23 14 -23 19 0 5 39 76 86 158 76 132 88 148 105 140 10 -6
20 -14 24 -19z m-2443 -131 l87 -150 -22 -15 c-20 -14 -23 -14 -35 2 -29 39
-162 276 -162 288 0 13 14 23 36 24 5 1 49 -66 96 -149z m3248 -684 c0 -10
-281 -176 -297 -176 -9 0 -37 40 -31 44 2 2 71 42 153 89 136 79 151 86 163
70 6 -9 12 -22 12 -27z m-3999 -52 c143 -84 147 -87 137 -110 -7 -14 -17 -23
-23 -22 -6 2 -77 41 -157 87 -146 84 -146 84 -131 108 8 13 18 23 20 23 3 0
72 -39 154 -86z m1529 55 c47 -7 89 -16 95 -20 5 -5 18 -9 30 -9 25 0 117 -48
128 -66 4 -8 13 -14 18 -14 15 0 99 -83 99 -97 0 -7 4 -13 9 -13 5 0 14 -15
21 -32 6 -18 18 -45 26 -60 18 -33 11 -35 -23 -8 -14 11 -32 20 -40 20 -8 0
-26 9 -40 20 -14 11 -32 20 -39 20 -8 0 -22 4 -32 9 -59 29 -92 42 -134 52
-27 6 -48 15 -48 19 0 5 -24 11 -52 15 -29 3 -62 10 -73 15 -59 25 -185 40
-185 21 0 -11 25 -21 56 -21 13 0 24 -4 24 -9 0 -4 28 -12 62 -15 35 -4 65
-12 68 -17 4 -5 33 -14 66 -20 32 -6 66 -17 75 -25 8 -8 28 -14 42 -14 15 0
27 -4 27 -10 0 -5 16 -12 36 -16 19 -4 38 -12 40 -19 3 -7 19 -15 35 -19 17
-3 42 -15 56 -26 14 -11 32 -20 39 -20 8 0 14 -4 14 -9 0 -5 9 -11 21 -14 13
-4 18 -10 14 -18 -10 -15 -255 -6 -265 11 -4 6 -31 13 -61 16 -30 3 -68 12
-86 20 -17 8 -40 14 -51 14 -11 0 -27 6 -35 14 -8 8 -30 18 -50 21 -20 4 -41
13 -48 21 -6 8 -18 14 -25 14 -21 0 -95 41 -101 56 -3 8 -11 14 -19 14 -8 0
-14 6 -14 14 0 7 -9 16 -20 19 -16 4 -20 14 -20 47 0 32 6 46 28 65 15 13 39
25 55 25 15 0 27 4 27 8 0 8 89 28 140 31 14 0 63 -4 110 -10z m665 -60 c19
-17 35 -40 35 -52 0 -21 -26 -57 -42 -57 -16 0 -49 -41 -55 -70 -3 -17 -12
-30 -19 -30 -8 0 -14 -8 -14 -18 0 -10 -3 -22 -7 -26 -10 -10 -32 -96 -33
-128 0 -16 -4 -28 -9 -28 -4 0 -11 -32 -13 -72 -7 -87 -27 -111 -91 -106 -47
4 -56 19 -28 47 11 11 23 32 27 46 3 14 10 25 15 25 5 0 9 6 9 14 0 7 6 19 14
25 8 6 19 32 25 56 6 25 15 45 20 45 5 0 11 23 15 50 4 28 10 50 14 50 13 0
32 88 32 150 0 33 4 60 10 60 6 0 10 11 10 25 0 36 40 33 85 -6z m1865 -44 c0
-5 -69 -49 -152 -97 -151 -87 -153 -88 -165 -65 -6 12 -9 25 -5 29 4 4 72 45
152 91 127 73 146 82 157 68 7 -9 13 -20 13 -26z m-4168 -26 c57 -34 119 -69
138 -80 62 -32 63 -34 51 -58 -7 -11 -16 -21 -22 -21 -8 0 -282 153 -298 166
-5 4 16 54 23 54 2 0 51 -27 108 -61z m1602 -448 c3 -4 47 -11 98 -15 51 -4
97 -11 103 -15 5 -4 36 -14 68 -21 31 -7 57 -17 57 -21 0 -4 18 -10 40 -14 22
-4 42 -11 46 -16 11 -18 81 -9 133 17 28 15 55 23 59 20 3 -4 2 -10 -3 -14
-15 -11 -43 -72 -57 -124 -7 -27 -16 -48 -20 -48 -4 0 -10 -16 -14 -35 -3 -19
-10 -35 -14 -35 -4 0 -13 -19 -20 -42 -8 -24 -20 -52 -27 -63 -7 -11 -13 -30
-13 -42 0 -13 -4 -23 -10 -23 -5 0 -12 -11 -16 -25 -4 -16 -13 -25 -25 -25
-10 0 -19 -4 -19 -10 0 -5 -5 -10 -12 -10 -16 0 -58 -41 -58 -57 0 -7 -4 -13
-10 -13 -14 0 -13 -96 2 -119 10 -16 7 -24 -20 -53 -17 -18 -50 -55 -72 -83
-22 -27 -54 -65 -70 -83 -17 -18 -30 -35 -30 -39 0 -5 -32 -44 -91 -109 -10
-12 -19 -26 -19 -31 0 -5 -12 -20 -28 -33 -32 -30 -57 -66 -94 -139 -15 -30
-31 -57 -37 -60 -5 -3 -13 -19 -16 -34 -9 -34 15 -37 42 -4 10 12 29 29 43 39
14 9 34 24 45 35 11 10 28 22 38 26 9 3 17 13 17 21 0 8 6 19 13 23 7 4 26 26
42 48 17 22 36 44 42 48 7 4 13 12 13 17 0 5 13 24 30 42 16 18 48 56 70 83
22 28 54 64 70 82 17 17 30 35 30 40 0 5 11 20 25 33 14 13 25 29 25 36 0 15
23 24 61 24 96 0 174 126 122 199 -17 25 -20 90 -5 100 10 7 34 58 53 114 7
20 16 37 21 37 4 0 10 17 14 38 4 20 13 46 20 57 8 11 14 26 14 34 0 13 23 67
55 131 7 14 16 40 20 58 5 27 11 32 35 32 16 0 30 5 32 11 5 15 188 26 188 12
0 -6 32 -14 70 -17 39 -4 70 -11 70 -17 0 -5 7 -9 15 -9 48 0 214 -128 229
-178 4 -11 15 -27 26 -37 11 -10 20 -24 20 -32 0 -7 4 -21 9 -31 5 -9 14 -30
21 -47 7 -16 16 -38 21 -47 5 -10 12 -63 15 -118 4 -55 11 -103 16 -106 11 -7
11 -101 -1 -108 -4 -3 -11 -56 -15 -118 -4 -62 -11 -117 -15 -123 -4 -5 -13
-37 -20 -70 -7 -33 -17 -68 -22 -77 -5 -10 -9 -23 -9 -30 0 -6 -6 -19 -13 -27
-8 -9 -20 -42 -27 -73 -8 -35 -18 -58 -27 -58 -7 0 -13 -8 -13 -17 0 -10 -9
-29 -20 -43 -11 -14 -20 -31 -20 -38 0 -8 -16 -32 -35 -55 -19 -22 -35 -47
-35 -54 0 -7 -7 -13 -15 -13 -8 0 -15 -6 -15 -13 0 -17 -129 -147 -146 -147
-7 0 -17 -7 -22 -16 -9 -17 -37 -35 -92 -59 -19 -9 -43 -20 -52 -25 -10 -6
-26 -10 -36 -10 -9 0 -28 -7 -40 -16 -16 -11 -55 -18 -121 -21 -101 -6 -111
-4 -213 48 -24 12 -125 11 -133 -1 -3 -5 -21 -10 -39 -10 -18 0 -41 -7 -52
-15 -21 -16 -159 -21 -168 -6 -4 5 -25 12 -49 16 -23 4 -46 10 -52 14 -5 4
-28 13 -50 20 -22 8 -62 29 -89 48 -26 18 -51 33 -55 33 -6 0 -139 131 -185
184 -14 16 -26 34 -26 40 -1 6 -14 27 -30 46 -17 19 -30 38 -30 42 0 9 -51 90
-62 98 -3 3 -10 19 -13 35 -6 26 -48 124 -76 177 -5 10 -9 27 -9 37 0 11 -4
22 -9 25 -4 3 -11 31 -15 63 -4 31 -12 63 -17 70 -27 32 -27 466 0 482 5 3 12
22 16 41 4 19 11 41 15 50 4 8 14 28 21 45 8 16 24 39 37 51 12 12 22 25 22
30 0 15 63 74 79 74 9 0 27 12 40 26 13 13 44 30 67 37 24 6 44 14 44 18 0 4
32 11 70 15 39 4 73 11 76 15 7 12 191 12 198 0z m-1614 -631 l0 -30 -185 0
-185 0 0 30 0 30 185 0 185 0 0 -30z m4410 0 l0 -30 -185 0 -185 0 0 30 0 30
185 0 185 0 0 -30z m-2352 -44 c2 -10 -1 -23 -6 -28 -15 -15 -52 1 -52 22 0
33 52 39 58 6z m-2058 -66 l0 -30 -185 0 -185 0 0 30 0 30 185 0 185 0 0 -30z
m4410 0 l0 -30 -185 0 -185 0 0 30 0 30 185 0 185 0 0 -30z m-395 -910 c76
-43 142 -83 147 -88 5 -5 1 -18 -9 -30 l-18 -21 -80 48 c-44 26 -107 62 -140
81 -33 18 -64 36 -68 40 -12 11 1 50 17 50 7 0 75 -36 151 -80z m-3725 -31 c0
-5 -266 -161 -300 -177 -4 -1 -12 9 -18 22 -9 19 -8 27 1 33 7 4 75 44 152 89
136 79 140 81 152 60 7 -11 12 -24 13 -27z m3680 -80 c132 -76 139 -82 129
-102 -7 -12 -13 -24 -15 -25 -3 -4 -87 41 -220 120 -90 52 -91 53 -76 76 8 13
21 21 29 18 8 -3 77 -42 153 -87z m-3629 0 c6 -12 7 -25 2 -29 -4 -4 -73 -45
-152 -91 -137 -79 -144 -82 -157 -64 -8 11 -13 23 -11 28 2 8 286 175 299 176
4 1 12 -8 19 -20z m2883 -751 c82 -141 87 -152 70 -165 -10 -7 -21 -13 -26
-13 -6 0 -75 113 -166 272 -15 26 -15 29 3 43 11 8 22 15 25 15 3 0 45 -68 94
-152z m-102 -61 c78 -136 85 -153 71 -164 -9 -7 -22 -13 -27 -13 -6 0 -45 60
-86 132 -101 177 -98 168 -75 184 10 8 21 14 24 14 3 0 45 -69 93 -153z
m-2091 130 c15 -11 8 -27 -65 -152 -44 -77 -85 -146 -89 -152 -6 -9 -14 -10
-33 -1 -13 6 -23 14 -22 18 19 44 174 300 182 300 6 0 18 -6 27 -13z m103 -60
c15 -11 10 -25 -70 -162 -47 -83 -87 -151 -89 -153 -5 -6 -45 22 -45 32 0 17
165 295 176 296 5 0 18 -6 28 -13z m856 -302 l0 -185 -30 0 -30 0 0 185 0 185
30 0 30 0 0 -185z m120 0 l0 -185 -30 0 -30 0 0 185 0 185 30 0 30 0 0 -185z"/>
</g>
</svg>
