<?xml version="1.0" standalone="no"?>
<!DOCTYPE svg PUBLIC "-//W3C//DTD SVG 20010904//EN"
 "http://www.w3.org/TR/2001/REC-SVG-20010904/DTD/svg10.dtd">
<svg version="1.0" xmlns="http://www.w3.org/2000/svg"
 width="700.000000pt" height="700.000000pt" viewBox="0 0 700.000000 700.000000"
 preserveAspectRatio="xMidYMid meet">
<metadata>
Created by potrace 1.14, written by Peter Selinger 2001-2017
</metadata>
<g transform="translate(0.000000,700.000000) scale(0.100000,-0.100000)"
fill="#000000" stroke="none">
<path d="M3205 6993 c-60 -2 -114 -8 -119 -13 -6 -6 -40 -10 -77 -10 -37 0
-71 -4 -74 -10 -3 -5 -30 -10 -60 -10 -30 0 -57 -4 -60 -10 -3 -5 -22 -10 -41
-10 -19 0 -34 -4 -34 -10 0 -5 -18 -10 -40 -10 -22 0 -40 -4 -40 -10 0 -5 -20
-10 -44 -10 -25 0 -48 -4 -51 -10 -3 -5 -17 -10 -31 -10 -13 0 -24 -4 -24 -10
0 -5 -18 -10 -40 -10 -22 0 -40 -4 -40 -10 0 -5 -9 -10 -20 -10 -11 0 -20 -4
-20 -9 0 -5 -22 -12 -50 -16 -27 -4 -52 -11 -56 -16 -3 -5 -14 -9 -24 -9 -11
0 -35 -9 -55 -20 -20 -11 -42 -20 -49 -20 -17 0 -100 -42 -104 -52 -2 -5 -12
-8 -23 -8 -10 0 -19 -4 -19 -10 0 -5 -9 -10 -20 -10 -11 0 -20 -4 -20 -10 0
-5 -9 -10 -19 -10 -11 0 -21 -3 -23 -7 -3 -8 -59 -37 -140 -72 -26 -12 -50
-25 -53 -31 -3 -6 -25 -19 -49 -30 -23 -10 -49 -26 -56 -35 -7 -8 -18 -15 -24
-15 -6 0 -18 -9 -26 -20 -8 -11 -21 -20 -30 -20 -9 0 -22 -9 -30 -20 -8 -11
-21 -20 -30 -20 -9 0 -22 -9 -30 -20 -8 -11 -20 -20 -27 -20 -8 0 -29 -16 -47
-35 -19 -19 -40 -35 -46 -35 -6 0 -29 -18 -50 -40 -21 -22 -43 -40 -48 -40 -5
0 -56 -46 -113 -103 -57 -57 -112 -106 -121 -110 -10 -3 -18 -12 -18 -19 0 -7
-38 -50 -85 -96 -47 -46 -85 -88 -85 -93 0 -6 -22 -32 -50 -59 -27 -27 -50
-54 -50 -61 0 -6 -11 -22 -25 -35 -14 -13 -25 -29 -25 -36 0 -8 -9 -20 -20
-28 -11 -8 -20 -21 -20 -28 0 -8 -13 -27 -30 -42 -16 -15 -30 -35 -30 -44 0
-9 -4 -16 -10 -16 -5 0 -10 -6 -10 -13 0 -8 -9 -22 -20 -32 -11 -10 -20 -24
-20 -30 0 -7 -7 -18 -15 -25 -15 -13 -75 -130 -75 -147 0 -6 -9 -18 -20 -28
-11 -10 -20 -24 -20 -32 0 -7 -4 -13 -10 -13 -5 0 -10 -9 -10 -20 0 -11 -4
-20 -10 -20 -5 0 -10 -9 -10 -20 0 -11 -4 -20 -10 -20 -5 0 -10 -13 -10 -29 0
-16 -3 -31 -7 -33 -13 -5 -73 -129 -73 -149 0 -10 -4 -21 -10 -24 -5 -3 -10
-14 -10 -24 0 -10 -7 -32 -15 -47 -8 -16 -15 -39 -15 -51 0 -13 -4 -23 -10
-23 -5 0 -10 -13 -10 -30 0 -16 -4 -30 -10 -30 -5 0 -10 -13 -10 -30 0 -16 -4
-30 -10 -30 -5 0 -10 -15 -10 -34 0 -19 -5 -38 -10 -41 -6 -3 -10 -17 -10 -30
0 -13 -4 -27 -10 -30 -5 -3 -10 -22 -10 -41 0 -19 -4 -34 -10 -34 -5 0 -10
-24 -10 -54 0 -30 -4 -58 -10 -61 -5 -3 -10 -26 -10 -50 0 -24 -4 -47 -10 -50
-5 -3 -10 -28 -10 -54 0 -26 -6 -53 -12 -59 -19 -19 -19 -925 0 -943 6 -7 12
-34 12 -60 0 -26 5 -51 10 -54 6 -3 10 -26 10 -50 0 -24 5 -47 10 -50 6 -3 10
-26 10 -51 0 -24 5 -44 10 -44 6 0 10 -18 10 -40 0 -22 5 -40 10 -40 6 0 10
-15 10 -34 0 -19 5 -38 10 -41 6 -3 10 -17 10 -31 0 -13 5 -24 10 -24 6 0 10
-18 10 -40 0 -22 5 -40 10 -40 6 0 10 -13 10 -30 0 -16 5 -30 10 -30 6 0 10
-10 10 -22 0 -13 7 -36 15 -52 8 -15 15 -34 15 -42 0 -7 9 -29 20 -49 11 -20
20 -42 20 -49 0 -17 42 -100 53 -104 4 -2 7 -17 7 -33 0 -16 5 -29 10 -29 6 0
10 -9 10 -20 0 -11 5 -20 10 -20 6 0 10 -8 10 -18 0 -10 9 -24 20 -32 11 -8
20 -24 21 -35 0 -11 9 -33 20 -50 10 -16 23 -40 28 -52 5 -11 15 -24 20 -28 6
-3 20 -25 31 -49 10 -23 26 -49 35 -56 8 -7 15 -18 15 -24 0 -6 9 -18 20 -26
11 -8 20 -21 20 -30 0 -9 9 -22 20 -30 11 -8 20 -21 20 -30 0 -9 9 -22 20 -30
11 -8 20 -21 20 -29 0 -7 11 -24 25 -37 14 -13 25 -28 25 -34 0 -6 23 -33 50
-60 28 -27 50 -53 50 -59 0 -13 429 -441 442 -441 5 0 23 -13 38 -30 15 -16
33 -30 39 -30 6 0 25 -14 43 -30 17 -17 35 -30 39 -30 4 0 19 -11 33 -25 14
-14 31 -25 38 -25 8 0 20 -9 28 -20 8 -11 21 -20 29 -20 7 0 21 -8 30 -18 9
-10 32 -26 52 -35 20 -9 42 -23 49 -32 7 -8 18 -15 25 -15 7 0 18 -7 25 -15 7
-9 34 -25 59 -36 80 -35 136 -64 139 -71 2 -5 12 -8 23 -8 10 0 19 -4 19 -10
0 -5 9 -10 20 -10 11 0 20 -4 20 -10 0 -5 9 -10 20 -10 11 0 20 -3 20 -7 0 -9
49 -33 67 -33 7 0 28 -9 48 -20 20 -11 42 -20 50 -20 8 0 29 -8 47 -18 18 -11
50 -22 71 -26 20 -4 37 -11 37 -16 0 -6 18 -10 40 -10 22 0 40 -4 40 -10 0 -5
15 -10 34 -10 19 0 38 -4 41 -10 3 -5 17 -10 30 -10 13 0 27 -5 30 -10 3 -6
22 -10 41 -10 19 0 34 -4 34 -10 0 -5 18 -10 40 -10 22 0 40 -4 40 -10 0 -5
20 -10 44 -10 25 0 48 -4 51 -10 3 -5 26 -10 51 -10 24 0 44 -4 44 -10 0 -5
24 -10 53 -10 29 0 59 -6 66 -12 18 -19 824 -19 843 0 7 7 38 12 75 12 35 0
63 4 63 10 0 6 24 10 54 10 30 0 58 5 61 10 3 6 26 10 51 10 24 0 44 5 44 10
0 6 18 10 40 10 22 0 40 5 40 10 0 6 15 10 34 10 19 0 38 5 41 10 3 6 21 10
40 10 19 0 37 5 40 10 3 6 17 10 31 10 13 0 24 5 24 10 0 6 18 10 40 10 22 0
40 4 40 9 0 5 18 12 40 16 22 4 42 11 46 16 3 5 16 9 29 9 13 0 27 5 30 10 3
6 14 10 24 10 20 0 144 60 149 73 2 4 12 7 23 7 10 0 19 5 19 10 0 6 9 10 20
10 11 0 20 5 20 10 0 6 14 10 30 10 17 0 30 5 30 10 0 6 11 10 23 10 13 0 32
9 42 20 10 11 55 38 101 60 45 22 87 47 94 55 7 8 18 15 25 15 6 0 20 9 30 20
10 11 22 20 28 20 5 0 22 14 37 30 15 17 35 30 44 30 9 0 16 5 16 10 0 6 7 10
16 10 8 0 32 16 52 35 20 19 41 35 45 35 5 0 26 18 47 40 21 22 44 40 50 40 6
0 36 25 65 55 29 30 57 55 63 55 14 0 242 228 242 242 0 6 25 34 55 63 30 29
55 59 55 65 0 6 18 29 40 50 22 21 40 43 40 47 0 5 11 20 24 32 14 13 30 36
36 52 7 16 16 29 21 29 5 0 9 8 9 18 0 10 9 24 20 32 11 8 20 21 20 30 0 8 9
21 20 28 11 7 20 18 20 26 0 7 7 19 15 26 9 7 25 33 35 56 11 24 24 46 30 49
9 6 23 34 61 123 8 17 17 32 21 32 5 0 8 9 8 20 0 11 5 20 10 20 6 0 10 9 10
20 0 11 5 20 10 20 6 0 10 9 10 20 0 11 5 20 10 20 6 0 10 9 10 20 0 11 3 20
8 20 8 0 32 49 32 67 0 7 9 28 20 48 11 20 20 42 20 50 0 8 8 29 19 48 10 18
22 49 26 68 4 19 16 41 26 50 12 10 19 30 19 53 0 20 5 36 10 36 6 0 10 11 10
24 0 14 5 28 10 31 6 3 10 21 10 40 0 19 5 37 10 40 6 3 10 17 10 31 0 13 5
24 10 24 6 0 10 18 10 40 0 22 5 40 10 40 6 0 10 15 10 34 0 19 5 38 10 41 6
3 10 25 10 49 0 23 6 48 13 55 9 9 12 116 12 466 0 350 -3 457 -12 467 -9 8
-13 43 -13 99 0 48 -4 91 -10 94 -5 3 -10 17 -10 30 0 13 -4 27 -10 30 -5 3
-10 26 -10 50 0 24 -4 47 -10 50 -5 3 -10 22 -10 41 0 19 -4 34 -10 34 -5 0
-10 20 -10 44 0 25 -4 48 -10 51 -5 3 -10 21 -10 40 0 19 -4 37 -10 40 -5 3
-10 17 -10 31 0 13 -4 24 -10 24 -5 0 -10 14 -10 30 0 17 -4 30 -9 30 -5 0
-11 22 -15 50 -4 27 -11 52 -16 55 -6 3 -10 14 -10 25 0 10 -13 44 -30 75 -16
31 -30 62 -30 69 0 18 -24 66 -32 66 -5 0 -8 9 -8 20 0 11 -4 20 -10 20 -5 0
-10 9 -10 20 0 11 -4 20 -10 20 -5 0 -10 14 -10 30 0 17 -4 30 -10 30 -5 0
-10 6 -10 13 0 8 -9 22 -20 32 -11 10 -20 22 -20 27 0 15 -39 96 -50 103 -6 3
-19 25 -30 49 -10 23 -26 49 -35 56 -8 7 -15 19 -15 26 0 8 -9 19 -20 26 -11
7 -20 21 -20 30 0 10 -4 18 -10 18 -5 0 -10 7 -10 16 0 9 -8 24 -19 33 -10 9
-25 30 -33 46 -9 17 -25 39 -37 49 -12 11 -21 23 -21 28 0 5 -18 27 -40 48
-22 21 -40 44 -40 50 0 6 -25 36 -55 65 -30 29 -55 57 -55 63 0 13 -239 252
-252 252 -5 0 -36 27 -68 60 -32 33 -64 60 -70 60 -7 0 -25 14 -40 30 -15 17
-32 30 -37 30 -4 0 -20 11 -35 25 -15 14 -32 25 -39 25 -6 0 -24 14 -39 30
-15 17 -34 30 -42 30 -7 0 -20 9 -28 20 -8 11 -20 20 -26 20 -6 0 -17 7 -24
15 -7 9 -29 23 -49 32 -20 9 -44 23 -53 31 -19 16 -77 49 -140 79 -21 10 -38
21 -38 25 0 5 -9 8 -20 8 -11 0 -20 5 -20 10 0 6 -9 10 -20 10 -11 0 -20 5
-20 10 0 6 -13 10 -30 10 -16 0 -30 5 -30 10 0 6 -9 10 -19 10 -11 0 -21 3
-23 8 -5 12 -129 72 -149 72 -10 0 -21 5 -24 10 -3 6 -14 10 -24 10 -10 0 -32
7 -47 15 -16 8 -44 15 -61 15 -18 0 -33 5 -33 10 0 6 -13 10 -30 10 -16 0 -30
5 -30 10 0 6 -11 10 -24 10 -14 0 -28 5 -31 10 -3 6 -17 10 -30 10 -13 0 -27
5 -30 10 -3 6 -26 10 -51 10 -24 0 -44 5 -44 10 0 6 -13 10 -30 10 -16 0 -30
5 -30 10 0 6 -20 10 -44 10 -25 0 -48 5 -51 10 -3 6 -31 10 -61 10 -30 0 -54
5 -54 10 0 6 -28 10 -63 10 -35 0 -68 5 -73 10 -11 11 -516 20 -709 13z m265
-483 l0 -250 -45 0 -45 0 0 250 0 250 45 0 45 0 0 -250z m150 0 l0 -250 -40 0
-40 0 0 250 0 250 40 0 40 0 0 -250z m-2201 -871 l146 -146 -29 -29 -30 -29
-173 174 -173 175 27 28 27 28 29 -27 c16 -16 95 -94 176 -174z m4394 118
c-16 -16 -94 -95 -174 -176 l-146 -146 -29 29 -29 30 174 173 175 173 28 -27
28 -27 -27 -29z m-4414 -331 l45 -46 -24 -25 c-13 -14 -26 -25 -30 -25 -4 0
-83 76 -176 168 l-169 169 29 29 29 29 126 -126 c69 -70 146 -147 170 -173z
m4420 105 c-75 -75 -152 -151 -172 -170 l-37 -35 -25 24 c-14 13 -24 28 -22
33 1 5 77 84 167 176 l165 166 30 -29 30 -29 -136 -136z m-2885 -410 c3 -5 46
-12 96 -16 49 -4 90 -11 90 -16 0 -5 12 -9 27 -9 36 0 163 -63 193 -95 13 -14
28 -25 33 -25 14 0 127 -112 127 -126 0 -6 7 -17 15 -24 17 -14 45 -67 45 -85
0 -7 7 -25 15 -41 19 -36 11 -43 -18 -16 -13 12 -38 25 -57 28 -19 4 -42 16
-51 26 -9 10 -24 18 -33 18 -9 0 -16 5 -16 10 0 6 -13 10 -30 10 -16 0 -30 5
-30 10 0 6 -9 10 -20 10 -11 0 -35 9 -55 20 -20 11 -44 20 -55 20 -10 0 -22 5
-25 10 -3 6 -17 10 -31 10 -13 0 -24 5 -24 10 0 6 -9 10 -20 10 -11 0 -20 5
-20 10 0 6 -15 10 -34 10 -19 0 -38 5 -41 10 -3 6 -26 10 -50 10 -24 0 -46 4
-49 9 -3 4 -33 11 -66 15 -33 4 -60 11 -60 16 0 6 -29 10 -65 10 -36 0 -65 -4
-65 -9 0 -14 59 -41 90 -41 14 0 30 -4 36 -9 5 -5 27 -11 49 -14 67 -9 139
-27 149 -37 6 -6 29 -10 53 -10 24 0 43 -4 43 -10 0 -5 13 -10 28 -10 16 0 34
-8 42 -20 10 -14 26 -20 52 -20 21 0 38 -3 38 -7 0 -10 49 -33 70 -33 9 0 25
-9 35 -20 10 -11 26 -20 35 -20 22 0 74 -26 90 -45 6 -7 25 -17 41 -20 16 -4
29 -11 29 -16 0 -5 7 -9 15 -9 9 0 22 -5 29 -12 11 -10 11 -15 0 -25 -16 -16
-244 -19 -244 -3 0 6 -24 10 -54 10 -30 0 -58 5 -61 10 -3 6 -17 10 -31 10
-13 0 -24 5 -24 10 0 6 -24 10 -54 10 -30 0 -58 5 -61 10 -3 6 -17 10 -30 10
-13 0 -27 5 -30 10 -3 6 -21 10 -39 10 -20 0 -40 8 -50 19 -10 11 -38 22 -65
26 -30 4 -53 14 -62 26 -8 11 -25 19 -41 19 -15 0 -28 5 -28 10 0 6 -9 10 -20
10 -11 0 -20 5 -20 10 0 6 -8 10 -17 10 -10 0 -29 14 -42 30 -13 17 -29 30
-37 30 -8 0 -14 7 -14 14 0 8 -12 21 -27 28 -26 12 -28 19 -31 76 -2 47 0 62
11 62 7 0 26 14 42 30 20 21 38 30 61 30 18 0 35 4 38 9 3 5 34 12 69 15 34 4
69 11 77 16 19 12 127 13 134 1z m916 -51 c0 -5 7 -10 16 -10 9 0 29 -14 45
-31 22 -24 29 -41 29 -72 0 -40 -21 -77 -44 -77 -18 -1 -66 -48 -66 -65 0 -8
-4 -15 -10 -15 -5 0 -10 -13 -10 -30 0 -23 -4 -30 -20 -30 -16 0 -20 -7 -20
-30 0 -16 -4 -30 -10 -30 -5 0 -10 -13 -10 -30 0 -16 -9 -45 -20 -65 -15 -27
-22 -63 -26 -150 -4 -63 -11 -115 -16 -115 -4 0 -8 -11 -8 -23 0 -40 -34 -61
-105 -65 -78 -5 -93 12 -53 56 14 15 37 52 52 83 14 32 33 62 41 69 8 7 15 23
15 36 0 13 5 24 10 24 6 0 10 13 10 28 0 16 8 34 20 42 13 9 20 26 20 47 0 17
5 35 10 38 6 3 10 17 10 30 0 13 5 27 10 30 6 3 10 15 10 25 0 11 8 34 18 52
14 25 20 63 25 150 3 64 8 122 12 128 8 13 65 13 65 0z m-900 -750 c0 -6 32
-10 75 -10 43 0 75 -4 75 -10 0 -6 27 -10 60 -10 33 0 60 -4 60 -10 0 -5 13
-10 30 -10 16 0 45 -9 65 -20 20 -11 44 -20 55 -20 10 0 22 -4 25 -10 3 -5 16
-10 29 -10 12 0 26 -3 30 -7 15 -15 84 -33 127 -33 33 0 64 9 104 30 31 17 66
30 76 30 10 0 19 5 19 10 0 6 7 10 16 10 9 0 14 -3 12 -7 -2 -5 -12 -27 -23
-50 -11 -24 -23 -43 -27 -43 -5 0 -8 -13 -8 -30 0 -16 -4 -30 -10 -30 -5 0
-10 -9 -10 -20 0 -11 -4 -20 -10 -20 -5 0 -10 -8 -10 -18 0 -10 -9 -36 -19
-58 -11 -22 -22 -56 -26 -77 -4 -20 -11 -37 -16 -37 -5 0 -9 -9 -9 -20 0 -11
-4 -20 -10 -20 -5 0 -10 -8 -10 -18 0 -22 -22 -72 -32 -72 -5 0 -8 -13 -8 -30
0 -16 -4 -30 -10 -30 -5 0 -10 -9 -10 -20 0 -11 -4 -20 -10 -20 -5 0 -10 -9
-10 -20 0 -16 -7 -20 -30 -20 -16 0 -30 -4 -30 -10 0 -5 -6 -10 -12 -10 -20 0
-78 -56 -78 -74 0 -9 -4 -16 -10 -16 -6 0 -10 -35 -10 -85 0 -50 4 -85 10 -85
24 0 6 -35 -40 -80 -27 -27 -50 -53 -50 -59 0 -6 -18 -30 -40 -52 -22 -23 -40
-45 -40 -50 0 -5 -20 -29 -45 -53 -25 -25 -45 -50 -45 -57 0 -6 -18 -28 -40
-49 -22 -21 -40 -42 -40 -47 0 -5 -14 -22 -31 -39 -17 -16 -38 -42 -46 -59 -9
-16 -33 -46 -54 -66 -22 -21 -39 -44 -39 -52 0 -8 -6 -17 -14 -20 -7 -3 -31
-41 -51 -84 -21 -43 -46 -87 -56 -98 -10 -11 -21 -32 -24 -47 -11 -45 32 -37
74 12 19 22 39 40 45 40 5 0 25 14 42 31 18 17 42 36 55 43 12 6 27 20 33 30
6 11 28 38 49 60 20 23 37 46 37 51 0 6 16 26 35 45 19 19 35 38 35 43 0 4 23
30 50 57 28 27 50 54 50 60 0 6 18 29 40 50 22 21 40 43 40 49 0 6 20 31 45
55 25 25 45 50 45 57 0 6 18 28 40 49 22 21 40 45 40 53 0 19 21 27 73 28 51
1 138 45 152 77 5 12 13 22 17 22 5 0 8 14 8 30 0 17 5 30 10 30 20 0 9 70
-21 126 -18 34 -26 60 -20 62 6 2 11 17 11 33 0 16 5 29 10 29 6 0 10 9 10 20
0 11 3 20 8 20 8 0 32 48 32 65 0 6 11 35 25 63 14 29 25 59 25 67 0 8 5 15
10 15 6 0 10 16 10 35 0 19 5 35 10 35 6 0 10 9 10 20 0 11 5 20 10 20 6 0 10
14 10 30 0 17 5 30 10 30 6 0 10 9 10 20 0 11 5 20 10 20 6 0 10 9 10 20 0 11
5 20 10 20 6 0 10 9 10 20 0 11 9 35 20 55 11 20 20 41 20 48 0 7 6 25 13 40
9 21 19 27 45 27 17 0 32 5 32 10 0 6 43 10 110 10 67 0 110 -4 110 -10 0 -5
24 -10 54 -10 30 0 58 -4 61 -10 3 -5 21 -10 40 -10 19 0 37 -4 40 -10 3 -5
15 -10 26 -10 11 0 29 -9 41 -20 12 -11 28 -20 35 -20 7 0 13 -4 13 -10 0 -5
7 -10 16 -10 30 0 194 -147 194 -174 0 -9 5 -16 10 -16 6 0 10 -7 10 -16 0 -9
11 -25 25 -36 14 -11 25 -30 25 -43 0 -13 5 -27 10 -30 6 -3 10 -16 10 -29 0
-13 9 -31 20 -41 11 -10 20 -28 20 -41 0 -13 5 -26 10 -29 6 -3 10 -31 10 -61
0 -30 5 -54 10 -54 6 0 10 -38 10 -95 0 -57 4 -95 10 -95 6 0 10 -32 10 -75 0
-43 -4 -75 -10 -75 -6 0 -10 -38 -10 -95 0 -57 -4 -95 -10 -95 -6 0 -10 -28
-10 -64 0 -36 -4 -68 -10 -71 -5 -3 -10 -19 -10 -35 0 -16 -9 -45 -20 -65 -11
-20 -20 -51 -20 -70 0 -18 -4 -37 -10 -40 -5 -3 -10 -17 -10 -30 0 -13 -7 -30
-15 -39 -8 -8 -15 -26 -15 -40 0 -14 -9 -41 -20 -61 -11 -20 -20 -44 -20 -54
0 -10 -9 -21 -20 -24 -14 -3 -20 -14 -20 -31 0 -14 -4 -26 -10 -26 -5 0 -10
-8 -10 -18 0 -10 -9 -24 -20 -32 -11 -8 -20 -24 -20 -35 0 -12 -13 -34 -29
-49 -16 -16 -32 -39 -35 -52 -4 -13 -11 -24 -16 -24 -6 0 -10 -9 -10 -20 0
-13 -7 -20 -20 -20 -12 0 -20 -7 -20 -16 0 -9 -17 -33 -39 -53 -21 -20 -41
-44 -44 -54 -4 -9 -17 -21 -29 -26 -13 -5 -34 -21 -47 -35 -14 -14 -29 -26
-34 -26 -5 0 -22 -13 -37 -30 -15 -16 -34 -30 -42 -30 -7 0 -20 -9 -28 -20 -8
-11 -22 -20 -30 -20 -9 0 -25 -7 -36 -15 -10 -8 -29 -15 -41 -15 -12 0 -25 -4
-28 -10 -3 -5 -15 -10 -25 -10 -11 0 -35 -9 -55 -20 -20 -11 -53 -20 -75 -20
-21 0 -42 -4 -45 -10 -3 -6 -50 -10 -105 -10 -90 0 -103 3 -155 30 -31 17 -65
30 -75 30 -11 0 -22 4 -25 10 -8 13 -162 13 -170 0 -3 -5 -24 -10 -45 -10 -22
0 -55 -9 -75 -20 -29 -16 -54 -20 -135 -20 -55 0 -102 4 -105 10 -3 6 -17 10
-30 10 -13 0 -27 5 -30 10 -3 6 -21 10 -40 10 -19 0 -37 4 -40 10 -3 5 -17 10
-30 10 -13 0 -26 4 -30 9 -3 5 -19 12 -35 16 -17 4 -30 11 -30 16 0 5 -8 9
-18 9 -10 0 -24 9 -32 20 -8 11 -21 20 -30 20 -9 0 -22 9 -30 20 -8 11 -20 20
-27 20 -7 0 -46 34 -86 75 -39 41 -80 75 -89 75 -11 0 -18 8 -18 18 0 10 -9
24 -20 32 -11 8 -20 22 -20 32 0 11 -7 18 -19 18 -12 0 -20 9 -24 29 -3 16
-20 42 -36 59 -17 17 -31 38 -31 46 0 9 -4 16 -10 16 -5 0 -10 8 -10 18 0 10
-9 24 -20 32 -11 8 -20 22 -20 32 0 10 -4 18 -10 18 -5 0 -10 6 -10 14 0 7 -7
19 -15 26 -19 16 -45 68 -45 91 0 10 -4 21 -10 24 -5 3 -10 17 -10 31 0 13 -4
24 -9 24 -9 0 -41 88 -41 112 0 8 -9 20 -20 28 -13 9 -20 26 -20 47 0 17 -4
35 -10 38 -5 3 -10 26 -10 50 0 24 -4 47 -10 50 -5 3 -10 22 -10 41 0 19 -4
34 -10 34 -5 0 -10 18 -10 40 0 22 -4 40 -10 40 -6 0 -10 48 -10 125 0 77 -4
125 -10 125 -5 0 -10 13 -10 29 0 17 5 33 10 36 6 3 10 48 10 101 0 56 4 94
10 94 6 0 10 15 10 34 0 19 5 38 10 41 6 3 10 17 10 31 0 13 5 24 10 24 6 0
10 14 10 30 0 17 5 30 10 30 6 0 10 12 10 28 0 16 8 32 20 40 11 7 20 18 20
25 0 7 11 24 25 39 14 15 25 32 25 38 0 21 92 102 126 111 19 6 34 16 34 23 0
7 16 18 35 26 19 8 35 17 35 22 0 4 9 8 20 8 11 0 20 5 20 10 0 6 14 10 30 10
17 0 30 5 30 10 0 6 15 10 34 10 19 0 38 5 41 10 3 6 31 10 61 10 30 0 54 5
54 10 0 6 53 10 140 10 87 0 140 -4 140 -10z m-2210 -860 l0 -40 -250 0 -250
0 0 40 0 40 250 0 250 0 0 -40z m6020 0 l0 -40 -250 0 -250 0 0 40 0 40 250 0
250 0 0 -40z m-3176 -26 c32 -12 9 -74 -26 -74 -21 0 -38 21 -38 46 0 29 29
42 64 28z m-2844 -124 l0 -40 -250 0 -250 0 0 40 0 40 250 0 250 0 0 -40z
m6020 0 l0 -40 -250 0 -250 0 0 40 0 40 250 0 250 0 0 -40z m-5369 -1977
l-175 -173 -28 27 c-15 14 -27 28 -25 30 1 2 79 81 172 176 l170 172 30 -29
30 -30 -174 -173z m4441 -144 c-31 -35 -7 -52 -221 162 l-156 155 29 30 30 29
172 -174 172 -173 -26 -29z m-203 30 l116 -117 -29 -28 -29 -29 -146 146 c-80
80 -157 157 -170 172 l-23 26 23 29 24 30 59 -57 c32 -31 110 -108 175 -172z
m-3979 196 l24 -25 -35 -37 c-19 -20 -95 -97 -170 -172 l-136 -136 -29 29 -29
29 169 169 c93 92 172 168 176 168 4 0 17 -11 30 -25z m1820 -925 l0 -250 -45
0 -45 0 0 250 0 250 45 0 45 0 0 -250z m150 0 l0 -250 -40 0 -40 0 0 250 0
250 40 0 40 0 0 -250z"/>
</g>
</svg>
